<?xml version="1.0" encoding="utf-8"?><svg viewBox="0 0 154 32" xmlns="http://www.w3.org/2000/svg" xmlns:xlink="http://www.w3.org/1999/xlink"><style>:root>svg{display:none}:root>svg:target{display:block}</style><svg fill="none" viewBox="0 0 154 25" id="a-place-for-mom" xmlns="http://www.w3.org/2000/svg"><path d="M7.964 8.704c0-.33-.112-.614-.336-.853a1.099 1.099 0 00-.834-.359c-1.045 0-2.132 1.113-3.26 3.339-1.045 2.011-1.568 3.61-1.568 4.797 0 1.072.365 1.607 1.095 1.607 1.028 0 2.057-1.039 3.085-3.116a22.72 22.72 0 001.643-4.5c.116-.462.175-.767.175-.915zm3.01 6.231v.05a.193.193 0 00-.024.074c-.348.84-.805 1.558-1.369 2.152-.713.726-1.46 1.088-2.24 1.088-.896 0-1.343-.536-1.343-1.608 0-.28.024-.552.074-.816C4.96 17.491 3.75 18.3 2.438 18.3c-.78 0-1.393-.305-1.84-.915C.198 16.856 0 16.189 0 15.381c0-1.649.722-3.47 2.165-5.465 1.543-2.11 3.11-3.165 4.703-3.165.68 0 1.253.297 1.718.89.132-.495.398-.742.796-.742.763 0 1.145.132 1.145.396 0 .05-.19.642-.572 1.78-1.478 4.402-2.215 6.932-2.215 7.592 0 .313.115.47.348.47.464 0 1-.421 1.605-1.262.606-.84.917-1.261.933-1.261.233 0 .349.108.349.321zM23.617 5.044c0-1.384-.336-2.377-1.007-2.979-.673-.602-1.69-.894-3.05-.878-1.061 0-1.592.231-1.592.692v7.048c.614.099 1.061.148 1.344.148 2.887-.016 4.321-1.36 4.305-4.03zm2.937 0c0 3.298-2.249 4.946-6.744 4.946-.582 0-1.195-.033-1.842-.099v4.402c0 1.55.274 2.44.821 2.67.033.017.39.124 1.07.322.398.099.589.231.573.395-.017.198-.15.297-.399.297h-6.769c-.248 0-.381-.099-.397-.297-.017-.164.173-.296.572-.395.68-.198 1.036-.305 1.07-.321.547-.231.82-1.122.82-2.671V4.155c0-1.55-.273-2.44-.82-2.671-.034-.016-.39-.124-1.07-.322-.399-.099-.59-.23-.572-.396.016-.198.149-.296.397-.296h7.292c1.726 0 3.119.354 4.18 1.063 1.212.791 1.818 1.962 1.818 3.511zM32.716 17.68c-.017.198-.15.297-.399.297h-5.375c-.25 0-.382-.099-.398-.297-.017-.131.174-.247.572-.346.514-.115.871-.239 1.07-.37.199-.132.307-.495.324-1.089V2.893c0-.445-.042-.738-.125-.878-.083-.14-.332-.21-.746-.21-.631 0-.946-.1-.946-.297 0-.214.199-.362.597-.445.963-.198 1.908-.47 2.838-.816.115-.033.207-.05.273-.05.166 0 .265.096.299.285.033.19.05.59.05 1.2v12.61c0 1.666.107 2.556.323 2.671.116.066.473.173 1.07.322.398.115.589.247.573.395zM40.057 14.675v-2.756c-1.228.23-2.149.508-2.762.836-.996.558-1.493 1.33-1.493 2.313 0 .525.153.948.46 1.267.307.32.725.48 1.257.48.663 0 1.252-.205 1.767-.615.514-.41.77-.919.77-1.525zm4.554 1.596c-.448 1.27-1.228 1.904-2.34 1.904-1.194 0-1.924-.601-2.189-1.805-1.262 1.204-2.539 1.805-3.833 1.805-.83 0-1.485-.238-1.966-.715-.481-.477-.722-1.127-.722-1.95 0-1.496.813-2.614 2.44-3.355.928-.41 2.28-.732 4.056-.962.05-1.562-.075-2.574-.374-3.034-.248-.411-.812-.608-1.692-.592-.73.016-1.211.247-1.444.692L36.2 9.495c-.166.446-.523.668-1.071.668-.73 0-1.094-.313-1.094-.94 0-.807.505-1.433 1.517-1.879.78-.33 1.66-.494 2.638-.494 2.688.016 4.032.937 4.032 2.763v6.092c0 .889.249 1.324.746 1.308.332 0 .61-.177.834-.532.224-.354.386-.531.486-.531a.36.36 0 01.261.11c.075.075.095.146.062.21zM54.376 16.28c-1.079 1.395-2.406 2.093-3.982 2.093-1.643 0-2.953-.52-3.932-1.561-.98-1.04-1.469-2.396-1.469-4.064 0-1.669.544-3.073 1.63-4.213 1.087-1.14 2.468-1.702 4.144-1.685.763 0 1.51.165 2.24.494.913.413 1.369.956 1.369 1.633 0 .642-.332.963-.996.963-.398 0-.709-.189-.933-.568-.224-.38-.435-.758-.634-1.138-.299-.395-.714-.593-1.245-.593-1.095 0-1.924.529-2.488 1.586-.432.844-.647 1.868-.647 3.075 0 1.322.265 2.438.796 3.346.63 1.124 1.551 1.686 2.762 1.686.697 0 1.36-.25 1.991-.75.133-.117.539-.542 1.22-1.276.083-.083.157-.125.223-.125.15 0 .225.125.225.374s-.092.49-.274.723zM63.355 10.555c-.1-1.959-.888-2.93-2.364-2.914-1.593.017-2.547 1.154-2.863 3.413h3.111c1.427 0 2.132-.167 2.116-.499zm2.364 1.042c0 .182-.091.289-.274.322H58.029c-.017.23-.025.404-.025.52 0 1.352.249 2.447.747 3.288.63 1.038 1.575 1.558 2.837 1.558.83 0 1.534-.181 2.115-.544.3-.198.738-.602 1.319-1.212a.31.31 0 01.224-.098c.215 0 .324.098.324.296 0 .066-.025.14-.075.222-.946 1.6-2.44 2.39-4.48 2.375-1.626-.018-2.936-.54-3.931-1.57-.996-1.03-1.494-2.346-1.494-3.945 0-1.648.49-3.041 1.468-4.179 1.046-1.203 2.381-1.797 4.007-1.78 1.244 0 2.281.37 3.111 1.113 1.012.89 1.526 2.101 1.543 3.634zM80.302 1.608a.939.939 0 01-.262.655.831.831 0 01-.634.284c-.398 0-.714-.288-.946-.865-.232-.577-.539-.866-.92-.866-.863 0-1.544.505-2.041 1.514-.183.348-.473 1.217-.872 2.607l-.67 2.333h2.462c.216 0 .325.102.325.306 0 .34-.184.51-.549.51h-2.438l-2.489 9.32c-.581 2.17-1.153 3.772-1.717 4.808C68.522 24.07 67.236 25 65.693 25c-.58 0-1.095-.165-1.543-.494-.448-.33-.672-.767-.672-1.311 0-.742.337-1.113 1.007-1.113.46 0 .746.181.86.544.033.132.05.486.05 1.063 0 .38.175.57.524.57.7 0 1.317-.627 1.85-1.878.233-.543.524-1.473.873-2.79l3.05-11.505h-2.59c-.148 0-.223-.094-.223-.28 0-.358.157-.536.474-.536h2.488c.663-2.127 1.31-3.684 1.94-4.673C74.86.865 76.195 0 77.788 0c.581 0 1.12.124 1.618.37.597.297.896.71.896 1.238zM82.693 9.52c0-1.352-.456-2.028-1.369-2.028-1.045 0-2.008 1.097-2.886 3.289-.747 1.863-1.12 3.42-1.12 4.673 0 1.435.488 2.152 1.468 2.152 1.028 0 1.974-1.113 2.837-3.338.713-1.88 1.07-3.462 1.07-4.748zm1.816 1.31c0 1.715-.513 3.339-1.543 4.872-1.16 1.73-2.563 2.597-4.205 2.597-1.078 0-1.908-.43-2.489-1.287-.531-.741-.796-1.664-.796-2.77 0-1.697.523-3.329 1.568-4.895 1.178-1.748 2.58-2.621 4.205-2.621 1.079 0 1.908.429 2.49 1.285.514.76.77 1.699.77 2.82zM94.587 8.086c0 .297-.088.568-.262.816-.174.247-.403.371-.685.371-.281 0-.497-.173-.647-.52-.15-.345-.348-.518-.596-.518-.913 0-2.407 3.247-4.48 9.742h-1.941c.498-1.665.995-3.338 1.493-5.02.78-2.654 1.17-4.146 1.17-4.475 0-.28-.125-.42-.373-.42-.449 0-.872.271-1.27.815-.133.166-.398.618-.796 1.36-.1.198-.24.297-.423.297-.25 0-.373-.099-.373-.297l.024-.099c.216-.824.639-1.573 1.27-2.25.712-.742 1.468-1.112 2.264-1.112.879 0 1.319.503 1.319 1.508 0 .313-.058.701-.174 1.162-.117.396-.224.783-.324 1.162 1.26-2.554 2.447-3.832 3.558-3.832.366 0 .665.127.897.383.232.256.349.564.349.927zM117.307 17.68c-.016.198-.149.297-.398.297h-6.57c-.249 0-.382-.099-.398-.297-.017-.164.174-.296.572-.395.68-.198 1.037-.305 1.07-.322.548-.23.821-1.12.821-2.67V2.622l-6.421 15.034c-.148.346-.265.519-.348.519-.083 0-.223-.222-.423-.668l-5.525-12.61a12.436 12.436 0 00-.896-1.707l.15 11.103c.016.791.05 1.327.1 1.607.115.544.356.9.722 1.063.032.017.389.124 1.069.322.398.099.589.231.573.395-.017.198-.149.297-.399.297h-5.325c-.249 0-.382-.099-.398-.297-.017-.164.174-.296.572-.395.68-.198 1.037-.305 1.07-.322.365-.164.606-.535.721-1.113.067-.28.1-.799.1-1.557l.125-12.166c-.266-.214-.656-.429-1.17-.643a19.754 19.754 0 01-1.07-.322c-.399-.099-.589-.23-.572-.396.016-.198.149-.296.398-.296h2.986c1.128.017 1.775.07 1.941.16.165.092.415.524.747 1.299l5.301 12.34L112.156.84c.099-.248.323-.371.671-.371h4.082c.249 0 .382.098.398.296.016.166-.174.297-.572.396-.681.198-1.037.306-1.07.322-.548.231-.822 1.121-.822 2.67v10.139c0 1.55.274 2.44.822 2.67.033.017.389.124 1.07.322.398.099.588.231.572.395zM126.814 12.623c0-1.371-.225-2.494-.673-3.371-.58-1.14-1.485-1.71-2.712-1.71-1.228 0-2.132.587-2.712 1.76-.448.876-.672 1.991-.672 3.347 0 1.321.224 2.42.672 3.296.597 1.124 1.501 1.686 2.712 1.686 1.227 0 2.132-.562 2.712-1.686.448-.875.673-1.983.673-3.322zm2.388-.148c0 1.685-.547 3.09-1.642 4.213-1.095 1.124-2.489 1.685-4.181 1.685-1.692 0-3.061-.529-4.105-1.586-1.047-1.058-1.569-2.437-1.569-4.138 0-1.685.548-3.073 1.643-4.164 1.094-1.09 2.489-1.635 4.181-1.635 1.608 0 2.957.537 4.044 1.61 1.086 1.074 1.629 2.412 1.629 4.015zM150.68 17.681c-.017.198-.15.296-.399.296h-5.375c-.249 0-.382-.098-.398-.296-.016-.131.174-.246.572-.346.514-.115.875-.242 1.083-.381.207-.14.311-1.024.311-2.652v-3.207c0-1.003-.124-1.735-.373-2.195-.332-.625-.971-.938-1.917-.938-.796 0-1.477.243-2.04.728-.565.486-.846 1.081-.846 1.789v3.823c.016.986.024 1.529.024 1.628.034.592.133.937.299 1.036.165.099.523.213 1.07.345.398.099.588.222.573.37-.017.198-.15.296-.398.296h-5.376c-.249 0-.382-.098-.398-.296-.017-.131.174-.246.572-.346.514-.115.874-.242 1.083-.381.207-.14.311-1.024.311-2.652v-3.207c0-1.003-.124-1.735-.374-2.195-.331-.625-.97-.938-1.916-.938-.797 0-1.476.243-2.04.728-.564.486-.846 1.081-.846 1.789v3.823c0 1.66.107 2.549.323 2.664.116.066.472.173 1.07.32.398.115.589.247.573.395-.018.198-.15.296-.398.296h-5.376c-.249 0-.382-.099-.398-.297-.017-.131.182-.238.596-.321.515-.1.872-.235 1.071-.408.199-.173.299-1.06.299-2.659V9.57c0-.446-.041-.738-.125-.878-.083-.14-.332-.21-.747-.21-.63 0-.945-.1-.945-.297 0-.214.198-.363.596-.445.961-.198 1.906-.47 2.833-.817.15-.032.249-.049.299-.049.149 0 .24.108.274.322.015.148.032.569.049 1.26.364-.47.898-.85 1.603-1.143a5.623 5.623 0 012.174-.439c1.724 0 2.801.635 3.232 1.905.994-1.27 2.385-1.905 4.175-1.905 1.359 0 2.295.37 2.809 1.11.563.807.844 2.073.844 3.8v2.517c0 .937.009 1.48.025 1.628.034.593.133.938.299 1.037.166.098.523.213 1.071.345.397.099.588.222.572.37zM152.905 16.565a.582.582 0 00-.203-.028h-.085v.385h.137a.322.322 0 00.19-.05c.046-.032.069-.084.069-.157 0-.072-.036-.122-.108-.15zm-.637 1.065v-1.327l.371.001c.166 0 .257.002.276.003.105.007.193.03.263.068.119.064.178.17.178.316 0 .112-.031.192-.094.242a.437.437 0 01-.231.089.445.445 0 01.189.076c.079.064.118.163.118.298v.119a.255.255 0 00.013.078l.012.037h-.334a.98.98 0 01-.022-.184.57.57 0 00-.022-.162.16.16 0 00-.098-.097.39.39 0 00-.119-.022l-.077-.004h-.074v.469h-.349zm-.18-1.36a.954.954 0 00-.288.694c0 .277.098.513.293.706.194.194.428.291.703.291a.954.954 0 00.701-.292.967.967 0 00.291-.705.955.955 0 00-.29-.693.948.948 0 00-.702-.299c-.277 0-.513.1-.708.299zm1.551 1.553a1.172 1.172 0 01-.843.338 1.17 1.17 0 01-.857-.346 1.152 1.152 0 01-.348-.851c0-.35.126-.64.376-.872.235-.216.512-.325.829-.325.332 0 .616.117.851.351.235.234.353.516.353.846 0 .34-.12.626-.361.859z" fill="#8491A0"/></svg><svg fill="none" viewBox="0 0 32 27" id="camera" xmlns="http://www.w3.org/2000/svg"><path d="M29.828 5.236H26.9L26.227 2.2A2.795 2.795 0 0023.481 0H13.316c-1.33 0-2.459.905-2.746 2.201l-.673 3.035h-.694V3.94c0-.73-.595-1.323-1.326-1.323H3.591c-.73 0-1.325.593-1.325 1.323v1.295h-.094A2.173 2.173 0 000 7.404v14.688c0 1.196.975 2.169 2.172 2.169h10.075a11.293 11.293 0 006.152 1.813c2.265 0 4.378-.667 6.151-1.814h5.278A2.173 2.173 0 0032 22.093V7.404a2.173 2.173 0 00-2.172-2.168zM11.79 2.47c.16-.72.788-1.223 1.526-1.223h10.165c.739 0 1.366.503 1.526 1.223l.613 2.765h-1.07a11.293 11.293 0 00-6.151-1.814c-2.266 0-4.379.667-6.152 1.814h-1.07l.613-2.765zM3.516 3.94c0-.042.034-.075.075-.075h4.286c.042 0 .076.033.076.075v1.295H3.516V3.94zm1.503 19.072v-6.777a.624.624 0 00-1.25 0v6.777H2.172a.923.923 0 01-.922-.921V7.404c0-.508.414-.92.922-.92h8.477a11.287 11.287 0 00-3.596 8.264c0 3.257 1.385 6.197 3.597 8.265H5.02zm19.15 0a10.083 10.083 0 01-11.541 0c-2.613-1.824-4.325-4.848-4.325-8.265 0-3.417 1.712-6.441 4.325-8.264a10.08 10.08 0 0111.541 0c2.613 1.823 4.325 4.847 4.325 8.264 0 3.417-1.712 6.441-4.325 8.265zm6.581-.921c0 .508-.414.92-.922.92h-3.68a11.287 11.287 0 003.596-8.264c0-3.257-1.385-6.196-3.596-8.265h3.68c.508 0 .922.413.922.921v14.688z" fill="#5221E6"/><path d="M18.37 7.111c-4.248 0-7.703 3.456-7.703 7.704 0 4.248 3.456 7.704 7.703 7.704.62 0 1.235-.074 1.831-.22a.587.587 0 10-.278-1.14 6.538 6.538 0 01-8.083-6.345c0-3.6 2.93-6.53 6.53-6.53 3.601 0 6.53 2.93 6.53 6.53a6.495 6.495 0 01-1.12 3.66.587.587 0 00.971.659 7.665 7.665 0 001.323-4.318c0-4.248-3.456-7.704-7.704-7.704zM4.74 8.296a2.373 2.373 0 00-2.37 2.37 2.373 2.373 0 002.37 2.371 2.373 2.373 0 002.371-2.37 2.373 2.373 0 00-2.37-2.37zm0 3.468a1.098 1.098 0 01-1.096-1.097c0-.605.492-1.097 1.097-1.097s1.097.492 1.097 1.097-.492 1.097-1.097 1.097z" fill="#5221E6"/><path d="M23.692 20.625a.63.63 0 00-.088-.213.56.56 0 00-.163-.164.63.63 0 00-.214-.088.587.587 0 00-.608.252.604.604 0 00-.1.329.585.585 0 00.1.329.57.57 0 00.266.218.598.598 0 00.555-.055.597.597 0 00.252-.608z" fill="#5221E6"/></svg><svg fill="none" viewBox="0 0 85 21" id="cbre" xmlns="http://www.w3.org/2000/svg"><path d="M38.643 10.157c2.686-.886 3.174-3.128 3.167-4.954-.005-2.789-1.986-5.201-7.848-5.201L23.019 0v20.957h10.915c5.897 0 8.067-3.01 8.067-6.025 0-3.65-3.358-4.775-3.358-4.775zM28.213 4.56h7.366l.027.006c.832.146 1.437.849 1.437 1.674 0 .843-.649 1.638-1.506 1.754l-7.32.01-.005-3.444zm7.012 11.514h-7.013v-3.509h7.185l.017.002c.893.102 1.57.84 1.57 1.719 0 .956-.8 1.773-1.759 1.788zM66.504.003h18.491l-.01 4.574H71.642l.012 3.378h12.03v4.597h-12.03v3.655H85L84.997 21H66.504V.003zM55.748.03H44.566v20.964h5.135v-8.482l5.655-.006c1.62.024 2.88 1.343 2.88 2.97v5.5l5.026-.002-.01-6.766c0-3.135-3.046-4.06-3.046-4.06s3.114-.927 3.114-4.632C63.32.982 59.4.03 55.748.03zm2.803 6.504c-.092.69-.785 1.437-1.65 1.437l-7.217.003V4.617h7.22c.862 0 1.538.631 1.647 1.46v.457zM19.69 15.928c-.074.002-7.02.135-9.417-.097-3.862-.376-5.23-3.22-5.23-5.54 0-2.894 1.985-5.024 5.06-5.424 1.462-.19 9.46-.1 9.544-.1l.168.003.017-4.768-.17.001L10.61.02C9.603.08 7.932.182 6.221.877a10.718 10.718 0 00-4.142 3.329A10.373 10.373 0 000 10.454c0 .713.057 1.42.173 2.1.651 3.178 2.747 5.808 5.753 7.223 1.015.444 2.58.977 5.737 1.152l1.7.036 6.311.006h.167l.017-5.045-.168.002z" fill="#8491A0"/></svg><svg fill="none" viewBox="0 0 20 20" id="dribbble" xmlns="http://www.w3.org/2000/svg"><path fill-rule="evenodd" clip-rule="evenodd" d="M10 20C4.486 20 0 15.514 0 10S4.486 0 10 0s10 4.486 10 10-4.486 10-10 10zm8.433-8.631c-.292-.092-2.643-.794-5.32-.365 1.117 3.07 1.572 5.57 1.66 6.09a8.556 8.556 0 003.66-5.725zm-5.097 6.507c-.127-.75-.623-3.361-1.822-6.478l-.056.02c-4.818 1.678-6.547 5.02-6.7 5.334a8.53 8.53 0 008.578 1.124zm-9.682-2.152c.194-.331 2.538-4.212 6.943-5.636.112-.036.224-.07.337-.102a28.64 28.64 0 00-.693-1.45C5.976 9.814 1.837 9.76 1.463 9.753a8.508 8.508 0 002.191 5.972zM1.64 8.264c.382.005 3.901.02 7.896-1.041a54.521 54.521 0 00-3.166-4.94 8.573 8.573 0 00-4.73 5.98zm6.36-6.555a45.595 45.595 0 013.186 5c3.038-1.138 4.324-2.866 4.477-3.085a8.531 8.531 0 00-7.664-1.915zm8.613 2.903c-.18.243-1.612 2.078-4.77 3.367a26.397 26.397 0 01.75 1.678c2.843-.357 5.667.216 5.949.275a8.5 8.5 0 00-1.93-5.32z" fill="#E94B88"/></svg><svg fill="none" viewBox="0 0 71 29" id="epiq" xmlns="http://www.w3.org/2000/svg"><path d="M19.512 14.098c-1.384 4.214-4.771 6.589-9.351 6.589C4.465 20.687 0 16.167 0 10.382 0 4.674 4.465 0 9.968 0c5.118 0 10.045 4.215 10.007 11.225H3.31c.423 4.1 3.58 6.513 6.85 6.513 2.81 0 4.811-1.341 5.89-3.64h3.462zm-3.155-5.785C15.55 5.095 12.855 2.95 9.968 2.95c-2.732 0-5.619 1.993-6.465 5.363h12.854zm15.125 12.374c-2.848 0-5.312-1.532-6.735-3.448V29h-3.272V.498h3.156V3.64C26.017 1.648 28.556 0 31.481 0c5.696 0 9.892 4.636 9.892 10.306 0 5.746-4.196 10.38-9.891 10.38zm0-17.698c-3.657 0-6.735 3.294-6.735 7.317 0 4.06 3.078 7.393 6.735 7.393 3.694 0 6.62-3.333 6.62-7.393 0-4.023-2.926-7.317-6.62-7.317zM42.797.499h3.271v19.728h-3.271V.498zm4.732 9.895c0-5.757 4.695-10.388 10.638-10.388 5.945 0 10.64 4.63 10.64 10.388 0 5.757-4.738 10.303-10.64 10.303-5.9 0-10.638-4.546-10.638-10.303zm11.537-7.245c-5.416-.471-8.428 3.633-8.428 8.414 0 4.78 3.959 8.657 8.84 8.657a8.939 8.939 0 005.11-1.593l-1.225-3.106c1.266-1.312 1.998-3.127 1.998-5.131 0-3.963-2.78-6.912-6.295-7.241z" fill="#8491A0"/><path d="M56.214 12.377l9.65 7.816H71l-9.402-7.817" fill="#8491A0"/></svg><svg fill="none" viewBox="0 0 28 29" id="f" xmlns="http://www.w3.org/2000/svg"><path d="M26.776 0H.334a.334.334 0 00-.116.647l23.916 7.83a.123.123 0 00.147-.058l3.568-6.62A1.22 1.22 0 0026.776 0zM.006 27.678a.323.323 0 00.607.154l4.6-8.522a1.22 1.22 0 011.074-.64h11.737a1.22 1.22 0 001.074-.642l3.507-6.502a.099.099 0 00-.002-.096.097.097 0 00-.084-.047H1.226a1.22 1.22 0 00-1.22 1.22v15.075z" fill="#8491A0"/></svg><svg fill="none" viewBox="0 0 21 21" id="leaf" xmlns="http://www.w3.org/2000/svg"><path fill-rule="evenodd" clip-rule="evenodd" d="M19.488 0h-9.34C4.545 0 0 3.903 0 9.507v6.59C4.091 7.732 14.035 1.856 19.488 0z" fill="#8491A0"/><path d="M1 21h8.277c5.605 0 10.149-4.544 10.149-10.149V.485C10.786 5.283 4.873 12.751 1 21z" fill="#8491A0"/></svg><svg fill="none" viewBox="0 0 18 18" id="linkedin" xmlns="http://www.w3.org/2000/svg"><path d="M16.65 0H1.35C.63 0 0 .543 0 1.266v15.468C0 17.457.63 18 1.35 18h15.3c.72 0 1.35-.543 1.35-1.266V1.266C18 .633 17.37 0 16.65 0zM5.31 15.467h-2.7V6.874h2.7v8.593zM3.96 5.608c-.9 0-1.53-.724-1.53-1.538 0-.814.72-1.537 1.53-1.537s1.53.723 1.53 1.537c.09.905-.63 1.538-1.53 1.538zm11.34 9.86h-2.7v-4.161c0-.995 0-2.262-1.35-2.262s-1.62 1.086-1.62 2.262v4.25h-2.7V6.966h2.52V8.14c.36-.724 1.26-1.357 2.52-1.357 2.7 0 3.24 1.809 3.24 4.07v4.613h.09z" fill="#0077B5"/></svg><svg fill="none" viewBox="0 0 79 24" id="logo" xmlns="http://www.w3.org/2000/svg"><path d="M4.86 23.7H0V0h5.43c1.12 0 2.03.06 2.73.18.72.1 1.28.32 1.68.66.4.34.67.83.81 1.47.16.62.24 1.46.24 2.52v2.46c0 .62-.07 1.13-.21 1.53-.14.4-.32.72-.54.96-.2.24-.42.42-.66.54-.24.1-.46.17-.66.21v.12c.3.08.57.2.81.36.26.14.48.36.66.66.18.3.32.7.42 1.2.12.48.18 1.1.18 1.86v8.97H6V13.2c0-.26-.03-.43-.09-.51-.06-.1-.22-.15-.48-.15h-.57V23.7zm0-14.97h.57c.26 0 .42-.04.48-.12.06-.1.09-.28.09-.54V4.83c0-.26-.03-.43-.09-.51-.06-.1-.22-.15-.48-.15h-.57v4.56zm17.416 11.46c0 .84-.07 1.51-.21 2.01-.12.5-.36.89-.72 1.17-.34.26-.82.43-1.44.51-.6.08-1.39.12-2.37.12-.96 0-1.75-.04-2.37-.12-.62-.08-1.1-.25-1.44-.51-.34-.28-.58-.67-.72-1.17-.12-.5-.18-1.17-.18-2.01V9.24c0-.84.06-1.51.18-2.01.14-.5.38-.88.72-1.14.34-.28.82-.46 1.44-.54.62-.08 1.41-.12 2.37-.12.98 0 1.77.04 2.37.12.62.08 1.1.26 1.44.54.36.26.6.64.72 1.14.14.5.21 1.17.21 2.01v10.95zm-5.28-.84c0 .26.03.44.09.54.06.08.21.12.45.12.26 0 .42-.04.48-.12.06-.1.09-.28.09-.54v-9.27c0-.26-.03-.43-.09-.51-.06-.1-.22-.15-.48-.15-.24 0-.39.05-.45.15-.06.08-.09.25-.09.51v9.27zM28.724 0v6.54c.26-.36.58-.61.96-.75.4-.14.89-.21 1.47-.21s1.05.07 1.41.21c.36.12.63.32.81.6.2.28.33.66.39 1.14.08.46.12 1.03.12 1.71v10.95c0 .7-.04 1.29-.12 1.77-.06.46-.19.83-.39 1.11-.2.28-.49.48-.87.6s-.87.18-1.47.18c-.68 0-1.23-.07-1.65-.21-.42-.16-.74-.41-.96-.75v.81h-3.99V0h4.29zm.99 10.08c0-.24-.03-.41-.09-.51-.04-.1-.17-.15-.39-.15-.2 0-.35.04-.45.12a.55.55 0 00-.18.3v9.75c.04.14.1.25.18.33.1.06.25.09.45.09.22 0 .35-.05.39-.15.06-.1.09-.27.09-.51v-9.27zm10.641-6.96h-4.26V0h4.26v3.12zm0 20.58h-4.26V5.73h4.26V23.7zm12.198 0h-4.32V10.08c0-.24-.03-.41-.09-.51-.04-.1-.17-.15-.39-.15-.2 0-.35.04-.45.12a.72.72 0 00-.21.3V23.7h-4.29V5.73h3.99v.81c.22-.34.54-.58.96-.72.42-.16.97-.24 1.65-.24.6 0 1.1.06 1.5.18.42.12.75.32.99.6.24.28.41.66.51 1.14.1.46.15 1.04.15 1.74V23.7zm6.641 0h-4.35v-4.23h4.35v4.23zM78.43 0l-2.46 23.7h-6.12l-.81-17.19h-.12l-.99 17.19h-6.21L59.89 0h4.89l.51 16.62h.12L66.13 0h6l.51 16.62h.12L73.51 0h4.92z" fill="#fff"/></svg><svg fill="none" viewBox="0 0 42 21" id="m" xmlns="http://www.w3.org/2000/svg"><path d="M29.253 6.864c.154 0 .306-.01.454-.03l5.81 8.45a3.432 3.432 0 101.307-.911l-5.577-8.148a3.432 3.432 0 10-3.886.07l-5.526 8.015a3.43 3.43 0 00-2.026-.042l-5.496-7.973a3.432 3.432 0 10-3.898-.078l-5.652 8.187a3.432 3.432 0 101.321.986l5.882-8.556a3.464 3.464 0 00.76.016l5.69 8.206a3.432 3.432 0 104.775.095l5.756-8.3c.101.008.203.013.306.013z" fill="#8491A0"/></svg><svg fill="none" viewBox="0 0 32 32" id="pen" xmlns="http://www.w3.org/2000/svg"><path d="M17.221 1.2L30.8 14.778l1.2-1.2L18.421 0l-1.2 1.2z" fill="#5221E6"/><path fill-rule="evenodd" clip-rule="evenodd" d="M19.234 7.601a2.546 2.546 0 00-2.804-.54l-9.423 4.04a4.225 4.225 0 00-2.352 2.559 466.947 466.947 0 00-2.98 9.346 132.641 132.641 0 00-1.176 4.039c-.148.551-.27 1.036-.355 1.427-.079.364-.144.722-.144.98v.352L2.194 32h.352c.258 0 .617-.065.981-.144a31.66 31.66 0 001.427-.355 132.4 132.4 0 004.039-1.175 467.92 467.92 0 009.346-2.982 4.225 4.225 0 002.56-2.351l4.038-9.424a2.546 2.546 0 00-.54-2.803l-5.163-5.164zm-2.135 1.02a.849.849 0 01.934.18l5.164 5.164a.848.848 0 01.18.935l-4.038 9.423a2.528 2.528 0 01-1.531 1.408 464.745 464.745 0 01-9.31 2.97c-1.522.464-2.907.87-3.984 1.16-.54.145-.994.258-1.347.335l-.207.043 8.672-8.672a2.547 2.547 0 10-1.2-1.2L1.76 29.04c.012-.063.027-.132.043-.207.077-.353.19-.808.335-1.347.29-1.078.696-2.462 1.16-3.984a464.903 464.903 0 012.97-9.31 2.528 2.528 0 011.408-1.53l9.423-4.04z" fill="#5221E6"/></svg><svg fill="none" viewBox="0 0 32 32" id="play" xmlns="http://www.w3.org/2000/svg"><circle cx="16" cy="16" r="15" stroke="#5221E6" stroke-width="2" stroke-dasharray="10 10"/><path d="M21 16l-7.5 4.33v-8.66L21 16z" fill="#5221E6"/></svg><svg fill="none" viewBox="0 0 32 32" id="rectangles" xmlns="http://www.w3.org/2000/svg"><path fill-rule="evenodd" clip-rule="evenodd" d="M30.222 23.111H17.778v7.111h12.444v-7.11zm0-21.333H17.778V16h12.444V1.778zM10.667 16h-8.89v14.222h8.89V16zm0-14.222h-8.89v7.11h8.89v-7.11zM17.777 0C16.797 0 16 .796 16 1.778V16c0 .982.796 1.778 1.778 1.778h12.444c.982 0 1.778-.796 1.778-1.778V1.778C32 .796 31.204 0 30.222 0H17.778zm0 21.333c-.981 0-1.777.796-1.777 1.778v7.111c0 .982.796 1.778 1.778 1.778h12.444c.982 0 1.778-.796 1.778-1.778v-7.11c0-.983-.796-1.779-1.778-1.779H17.778zM0 16c0-.982.796-1.778 1.778-1.778h8.889c.982 0 1.777.796 1.777 1.778v14.222c0 .982-.796 1.778-1.777 1.778h-8.89A1.778 1.778 0 010 30.222V16zM1.778 0C.796 0 0 .796 0 1.778v7.11c0 .983.796 1.779 1.778 1.779h8.889c.982 0 1.777-.796 1.777-1.778V1.778C12.444.796 11.648 0 10.667 0h-8.89z" fill="#5221E6"/></svg><svg fill="none" viewBox="0 0 20 16" id="twitter" xmlns="http://www.w3.org/2000/svg"><path fill-rule="evenodd" clip-rule="evenodd" d="M20 1.872c-.69.296-1.478.493-2.364.591.788-.493 1.477-1.28 1.773-2.167-.788.492-1.675.788-2.562.985C16.157.493 15.074 0 13.892 0c-2.266 0-4.04 1.773-4.04 3.94 0 .296 0 .592.099.888C6.6 4.63 3.645 3.054 1.576.69a3.552 3.552 0 00-.59 1.97c0 1.38.689 2.562 1.773 3.35-.69 0-1.281-.197-1.872-.493v.099c0 1.97 1.379 3.547 3.25 3.94-.295.1-.689.1-1.083.1-.295 0-.492 0-.788-.1a3.933 3.933 0 003.744 2.76C4.63 13.398 2.857 13.99.985 13.99c-.295 0-.69 0-.985-.098 1.773 1.182 3.94 1.773 6.207 1.773 7.39 0 11.527-6.108 11.527-11.33v-.493C18.818 3.35 19.507 2.66 20 1.872z" fill="#26A7DE"/></svg></svg>